<?xml version="1.0" standalone="no"?><!-- Generator: Gravit.io --><svg xmlns="http://www.w3.org/2000/svg" xmlns:xlink="http://www.w3.org/1999/xlink" style="isolation:isolate" viewBox="0 0 648 84" width="648" height="84"><defs><clipPath id="_clipPath_oWT2s5SmFydC8rP82E8hzmOQb81lK3Hi"><rect width="648" height="84"/></clipPath></defs><g clip-path="url(#_clipPath_oWT2s5SmFydC8rP82E8hzmOQb81lK3Hi)"><g><rect x="0" y="-5" width="560.143" height="96" transform="matrix(1,0,0,1,0,0)" fill="rgb(0,0,128)"/><path d=" M 298.39 43.6 L 298.39 43.6 L 312.79 43.6 L 312.79 43.6 Q 312.79 39.94 311.23 37.66 L 311.23 37.66 L 311.23 37.66 Q 309.67 35.38 306.19 35.38 L 306.19 35.38 L 306.19 35.38 Q 302.77 35.38 300.73 37.69 L 300.73 37.69 L 300.73 37.69 Q 298.69 40 298.39 43.6 L 298.39 43.6 L 298.39 43.6 L 298.39 43.6 L 298.39 43.6 L 298.39 43.6 L 298.39 43.6 Z  M 407.11 31.6 L 417.01 31.3 L 417.55 35.56 L 417.55 35.56 Q 418.15 35.08 419.23 34.24 L 419.23 34.24 L 419.23 34.24 Q 420.31 33.4 421.78 32.62 L 421.78 32.62 L 421.78 32.62 Q 423.25 31.84 425.02 31.27 L 425.02 31.27 L 425.02 31.27 Q 426.79 30.7 428.71 30.7 L 428.71 30.7 L 428.71 30.7 Q 433.57 30.7 435.94 33.55 L 435.94 33.55 L 435.94 33.55 Q 438.31 36.4 438.31 41.5 L 438.31 41.5 L 438.31 58.3 L 442.81 59.8 L 442.81 63.1 L 428.41 63.1 L 428.41 59.8 L 432.31 58.3 L 432.31 42.1 L 432.31 42.1 Q 432.31 38.86 431.05 37.33 L 431.05 37.33 L 431.05 37.33 Q 429.79 35.8 427.21 35.8 L 427.21 35.8 L 427.21 35.8 Q 425.95 35.8 424.72 36.13 L 424.72 36.13 L 424.72 36.13 Q 423.49 36.46 422.44 37 L 422.44 37 L 422.44 37 Q 421.39 37.54 420.58 38.17 L 420.58 38.17 L 420.58 38.17 Q 419.77 38.8 419.23 39.4 L 419.23 39.4 L 418.21 40.6 L 418.21 58.3 L 422.11 59.8 L 422.11 63.1 L 407.11 63.1 L 407.11 59.8 L 412.21 58.3 L 412.21 36.1 L 407.11 34.9 L 407.11 31.6 L 407.11 31.6 L 407.11 31.6 L 407.11 31.6 L 407.11 31.6 L 407.11 31.6 L 407.11 31.6 Z  M 59.89 31.6 L 70.99 31.3 L 70.99 58.3 L 75.49 59.8 L 75.49 63.1 L 59.89 63.1 L 59.89 59.8 L 64.99 58.3 L 64.99 36.1 L 59.89 34.9 L 59.89 31.6 L 59.89 31.6 L 59.89 31.6 L 59.89 31.6 L 59.89 31.6 L 59.89 31.6 L 59.89 31.6 Z  M 80.41 62.38 L 80.35 53.5 L 84.55 53.5 L 85.21 58.66 L 85.21 58.66 Q 85.81 58.9 87.1 59.05 L 87.1 59.05 L 87.1 59.05 Q 88.39 59.2 89.65 59.2 L 89.65 59.2 L 89.65 59.2 Q 93.55 59.2 95.32 58.03 L 95.32 58.03 L 95.32 58.03 Q 97.09 56.86 97.09 54.46 L 97.09 54.46 L 97.09 54.46 Q 97.09 52.84 95.86 51.88 L 95.86 51.88 L 95.86 51.88 Q 94.63 50.92 92.77 50.26 L 92.77 50.26 L 92.77 50.26 Q 90.91 49.6 88.72 48.94 L 88.72 48.94 L 88.72 48.94 Q 86.53 48.28 84.67 47.23 L 84.67 47.23 L 84.67 47.23 Q 82.81 46.18 81.58 44.5 L 81.58 44.5 L 81.58 44.5 Q 80.35 42.82 80.35 40.06 L 80.35 40.06 L 80.35 40.06 Q 80.35 35.56 83.35 33.19 L 83.35 33.19 L 83.35 33.19 Q 86.35 30.82 91.33 30.7 L 91.33 30.7 L 91.33 30.7 Q 93.43 30.76 95.62 31.03 L 95.62 31.03 L 95.62 31.03 Q 97.81 31.3 100.09 32.02 L 100.09 32.02 L 101.59 32.5 L 101.41 40.6 L 97.51 40.6 L 96.55 35.92 L 96.55 35.92 Q 96.07 35.74 94.69 35.47 L 94.69 35.47 L 94.69 35.47 Q 93.31 35.2 91.75 35.2 L 91.75 35.2 L 91.75 35.2 Q 90.67 35.2 89.71 35.38 L 89.71 35.38 L 89.71 35.38 Q 88.75 35.56 88 35.98 L 88 35.98 L 88 35.98 Q 87.25 36.4 86.8 37.18 L 86.8 37.18 L 86.8 37.18 Q 86.35 37.96 86.35 39.1 L 86.35 39.1 L 86.35 39.1 Q 86.35 40.84 87.58 41.83 L 87.58 41.83 L 87.58 41.83 Q 88.81 42.82 90.67 43.54 L 90.67 43.54 L 90.67 43.54 Q 92.53 44.26 94.72 44.92 L 94.72 44.92 L 94.72 44.92 Q 96.91 45.58 98.77 46.63 L 98.77 46.63 L 98.77 46.63 Q 100.63 47.68 101.86 49.3 L 101.86 49.3 L 101.86 49.3 Q 103.09 50.92 103.09 53.56 L 103.09 53.56 L 103.09 53.56 Q 103.09 56.08 102.01 58 L 102.01 58 L 102.01 58 Q 100.93 59.92 99.1 61.21 L 99.1 61.21 L 99.1 61.21 Q 97.27 62.5 94.84 63.13 L 94.84 63.13 L 94.84 63.13 Q 92.41 63.76 89.65 63.76 L 89.65 63.76 L 89.65 63.76 Q 88.63 63.76 87.52 63.67 L 87.52 63.67 L 87.52 63.67 Q 86.41 63.58 85.33 63.43 L 85.33 63.43 L 85.33 63.43 Q 84.25 63.28 83.32 63.1 L 83.32 63.1 L 83.32 63.1 Q 82.39 62.92 81.79 62.74 L 81.79 62.74 L 80.41 62.38 L 80.41 62.38 L 80.41 62.38 L 80.41 62.38 L 80.41 62.38 L 80.41 62.38 L 80.41 62.38 Z  M 113.05 24.04 L 119.05 22.84 L 119.05 31.6 L 127.75 31.6 L 127.75 36.1 L 119.05 36.1 L 119.05 55.36 L 119.05 55.36 Q 119.05 59.02 122.05 59.02 L 122.05 59.02 L 122.05 59.02 Q 123.97 59.02 126.73 57.52 L 126.73 57.52 L 128.35 60.7 L 128.35 60.7 Q 124.27 63.7 119.95 63.7 L 119.95 63.7 L 119.95 63.7 Q 116.89 63.7 114.97 61.69 L 114.97 61.69 L 114.97 61.69 Q 113.05 59.68 113.05 55 L 113.05 55 L 113.05 36.1 L 107.05 36.1 L 107.05 32.2 L 113.05 31.6 L 113.05 24.04 L 113.05 24.04 L 113.05 24.04 L 113.05 24.04 L 113.05 24.04 L 113.05 24.04 L 113.05 24.04 Z  M 131.95 31.6 L 141.85 31.3 L 142.39 35.68 L 142.39 35.68 Q 146.83 30.7 151.45 30.7 L 151.45 30.7 L 151.45 30.7 Q 153.91 30.7 156.19 31.42 L 156.19 31.42 L 156.85 31.6 L 156.55 40.3 L 152.65 40.3 L 151.75 35.8 L 151.75 35.8 Q 146.59 35.8 143.05 40.48 L 143.05 40.48 L 143.05 58.3 L 149.05 59.8 L 149.05 63.1 L 131.95 63.1 L 131.95 59.8 L 137.05 58.3 L 137.05 36.1 L 131.95 34.9 L 131.95 31.6 L 131.95 31.6 L 131.95 31.6 L 131.95 31.6 L 131.95 31.6 L 131.95 31.6 L 131.95 31.6 Z  M 167.65 17.2 L 167.65 17.2 L 167.65 17.2 Q 171.55 17.2 171.55 21.7 L 171.55 21.7 L 171.55 21.7 Q 171.55 23.56 170.23 24.58 L 170.23 24.58 L 170.23 24.58 Q 168.91 25.6 167.41 25.6 L 167.41 25.6 L 167.41 25.6 Q 165.79 25.6 164.77 24.49 L 164.77 24.49 L 164.77 24.49 Q 163.75 23.38 163.75 21.4 L 163.75 21.4 L 163.75 21.4 Q 163.75 19.42 164.86 18.31 L 164.86 18.31 L 164.86 18.31 Q 165.97 17.2 167.65 17.2 L 167.65 17.2 L 167.65 17.2 L 167.65 17.2 L 167.65 17.2 L 167.65 17.2 L 167.65 17.2 Z  M 159.85 31.6 L 170.95 31.3 L 170.95 58.3 L 175.45 59.8 L 175.45 63.1 L 159.85 63.1 L 159.85 59.8 L 164.95 58.3 L 164.95 36.1 L 159.85 34.9 L 159.85 31.6 L 159.85 31.6 L 159.85 31.6 L 159.85 31.6 L 159.85 31.6 L 159.85 31.6 L 159.85 31.6 Z  M 205.75 33.1 L 205.45 41.2 L 201.55 41.2 L 200.65 36.1 L 200.65 36.1 Q 198.31 35.5 195.25 35.5 L 195.25 35.5 L 195.25 35.5 Q 190.93 35.5 188.59 38.26 L 188.59 38.26 L 188.59 38.26 Q 186.25 41.02 186.25 46.84 L 186.25 46.84 L 186.25 46.84 Q 186.25 52.66 188.71 55.78 L 188.71 55.78 L 188.71 55.78 Q 191.17 58.9 195.55 58.9 L 195.55 58.9 L 195.55 58.9 Q 196.81 58.9 198.04 58.66 L 198.04 58.66 L 198.04 58.66 Q 199.27 58.42 200.38 58.03 L 200.38 58.03 L 200.38 58.03 Q 201.49 57.64 202.39 57.16 L 202.39 57.16 L 202.39 57.16 Q 203.29 56.68 203.83 56.2 L 203.83 56.2 L 204.85 55.3 L 206.95 58.9 L 206.29 59.44 L 206.29 59.44 Q 205.57 60.04 204.31 60.79 L 204.31 60.79 L 204.31 60.79 Q 203.05 61.54 201.52 62.17 L 201.52 62.17 L 201.52 62.17 Q 199.99 62.8 198.28 63.25 L 198.28 63.25 L 198.28 63.25 Q 196.57 63.7 194.95 63.7 L 194.95 63.7 L 194.95 63.7 Q 187.63 63.7 183.79 59.35 L 183.79 59.35 L 183.79 59.35 Q 179.95 55 179.95 47.44 L 179.95 47.44 L 179.95 47.44 Q 179.95 43.72 181.06 40.63 L 181.06 40.63 L 181.06 40.63 Q 182.17 37.54 184.21 35.35 L 184.21 35.35 L 184.21 35.35 Q 186.25 33.16 189.13 31.93 L 189.13 31.93 L 189.13 31.93 Q 192.01 30.7 195.55 30.7 L 195.55 30.7 L 195.55 30.7 Q 196.75 30.7 198.01 30.88 L 198.01 30.88 L 198.01 30.88 Q 199.27 31.06 200.47 31.3 L 200.47 31.3 L 200.47 31.3 Q 201.67 31.54 202.69 31.87 L 202.69 31.87 L 202.69 31.87 Q 203.71 32.2 204.43 32.5 L 204.43 32.5 L 205.75 33.1 L 205.75 33.1 L 205.75 33.1 L 205.75 33.1 L 205.75 33.1 L 205.75 33.1 L 205.75 33.1 Z  M 215.35 24.04 L 221.35 22.84 L 221.35 31.6 L 230.05 31.6 L 230.05 36.1 L 221.35 36.1 L 221.35 55.36 L 221.35 55.36 Q 221.35 59.02 224.35 59.02 L 224.35 59.02 L 224.35 59.02 Q 226.27 59.02 229.03 57.52 L 229.03 57.52 L 230.65 60.7 L 230.65 60.7 Q 226.57 63.7 222.25 63.7 L 222.25 63.7 L 222.25 63.7 Q 219.19 63.7 217.27 61.69 L 217.27 61.69 L 217.27 61.69 Q 215.35 59.68 215.35 55 L 215.35 55 L 215.35 36.1 L 209.35 36.1 L 209.35 32.2 L 215.35 31.6 L 215.35 24.04 L 215.35 24.04 L 215.35 24.04 L 215.35 24.04 L 215.35 24.04 L 215.35 24.04 L 215.35 24.04 Z  M 478.81 31.6 L 488.71 31.3 L 489.25 35.68 L 489.25 35.68 Q 493.69 30.7 498.31 30.7 L 498.31 30.7 L 498.31 30.7 Q 500.77 30.7 503.05 31.42 L 503.05 31.42 L 503.71 31.6 L 503.41 40.3 L 499.51 40.3 L 498.61 35.8 L 498.61 35.8 Q 493.45 35.8 489.91 40.48 L 489.91 40.48 L 489.91 58.3 L 495.91 59.8 L 495.91 63.1 L 478.81 63.1 L 478.81 59.8 L 483.91 58.3 L 483.91 36.1 L 478.81 34.9 L 478.81 31.6 L 478.81 31.6 L 478.81 31.6 L 478.81 31.6 L 478.81 31.6 L 478.81 31.6 L 478.81 31.6 Z  M 453.55 43.6 L 453.55 43.6 L 467.95 43.6 L 467.95 43.6 Q 467.95 39.94 466.39 37.66 L 466.39 37.66 L 466.39 37.66 Q 464.83 35.38 461.35 35.38 L 461.35 35.38 L 461.35 35.38 Q 457.93 35.38 455.89 37.69 L 455.89 37.69 L 455.89 37.69 Q 453.85 40 453.55 43.6 L 453.55 43.6 L 453.55 43.6 L 453.55 43.6 L 453.55 43.6 L 453.55 43.6 L 453.55 43.6 Z  M 67.69 17.2 L 67.69 17.2 L 67.69 17.2 Q 71.59 17.2 71.59 21.7 L 71.59 21.7 L 71.59 21.7 Q 71.59 23.56 70.27 24.58 L 70.27 24.58 L 70.27 24.58 Q 68.95 25.6 67.45 25.6 L 67.45 25.6 L 67.45 25.6 Q 65.83 25.6 64.81 24.49 L 64.81 24.49 L 64.81 24.49 Q 63.79 23.38 63.79 21.4 L 63.79 21.4 L 63.79 21.4 Q 63.79 19.42 64.9 18.31 L 64.9 18.31 L 64.9 18.31 Q 66.01 17.2 67.69 17.2 L 67.69 17.2 L 67.69 17.2 L 67.69 17.2 L 67.69 17.2 L 67.69 17.2 L 67.69 17.2 Z  M 324.07 62.38 L 324.01 53.5 L 328.21 53.5 L 328.87 58.66 L 328.87 58.66 Q 329.47 58.9 330.76 59.05 L 330.76 59.05 L 330.76 59.05 Q 332.05 59.2 333.31 59.2 L 333.31 59.2 L 333.31 59.2 Q 337.21 59.2 338.98 58.03 L 338.98 58.03 L 338.98 58.03 Q 340.75 56.86 340.75 54.46 L 340.75 54.46 L 340.75 54.46 Q 340.75 52.84 339.52 51.88 L 339.52 51.88 L 339.52 51.88 Q 338.29 50.92 336.43 50.26 L 336.43 50.26 L 336.43 50.26 Q 334.57 49.6 332.38 48.94 L 332.38 48.94 L 332.38 48.94 Q 330.19 48.28 328.33 47.23 L 328.33 47.23 L 328.33 47.23 Q 326.47 46.18 325.24 44.5 L 325.24 44.5 L 325.24 44.5 Q 324.01 42.82 324.01 40.06 L 324.01 40.06 L 324.01 40.06 Q 324.01 35.56 327.01 33.19 L 327.01 33.19 L 327.01 33.19 Q 330.01 30.82 334.99 30.7 L 334.99 30.7 L 334.99 30.7 Q 337.09 30.76 339.28 31.03 L 339.28 31.03 L 339.28 31.03 Q 341.47 31.3 343.75 32.02 L 343.75 32.02 L 345.25 32.5 L 345.07 40.6 L 341.17 40.6 L 340.21 35.92 L 340.21 35.92 Q 339.73 35.74 338.35 35.47 L 338.35 35.47 L 338.35 35.47 Q 336.97 35.2 335.41 35.2 L 335.41 35.2 L 335.41 35.2 Q 334.33 35.2 333.37 35.38 L 333.37 35.38 L 333.37 35.38 Q 332.41 35.56 331.66 35.98 L 331.66 35.98 L 331.66 35.98 Q 330.91 36.4 330.46 37.18 L 330.46 37.18 L 330.46 37.18 Q 330.01 37.96 330.01 39.1 L 330.01 39.1 L 330.01 39.1 Q 330.01 40.84 331.24 41.83 L 331.24 41.83 L 331.24 41.83 Q 332.47 42.82 334.33 43.54 L 334.33 43.54 L 334.33 43.54 Q 336.19 44.26 338.38 44.92 L 338.38 44.92 L 338.38 44.92 Q 340.57 45.58 342.43 46.63 L 342.43 46.63 L 342.43 46.63 Q 344.29 47.68 345.52 49.3 L 345.52 49.3 L 345.52 49.3 Q 346.75 50.92 346.75 53.56 L 346.75 53.56 L 346.75 53.56 Q 346.75 56.08 345.67 58 L 345.67 58 L 345.67 58 Q 344.59 59.92 342.76 61.21 L 342.76 61.21 L 342.76 61.21 Q 340.93 62.5 338.5 63.13 L 338.5 63.13 L 338.5 63.13 Q 336.07 63.76 333.31 63.76 L 333.31 63.76 L 333.31 63.76 Q 332.29 63.76 331.18 63.67 L 331.18 63.67 L 331.18 63.67 Q 330.07 63.58 328.99 63.43 L 328.99 63.43 L 328.99 63.43 Q 327.91 63.28 326.98 63.1 L 326.98 63.1 L 326.98 63.1 Q 326.05 62.92 325.45 62.74 L 325.45 62.74 L 324.07 62.38 L 324.07 62.38 L 324.07 62.38 L 324.07 62.38 L 324.07 62.38 L 324.07 62.38 L 324.07 62.38 Z  M 359.71 17.2 L 359.71 17.2 L 359.71 17.2 Q 363.61 17.2 363.61 21.7 L 363.61 21.7 L 363.61 21.7 Q 363.61 23.56 362.29 24.58 L 362.29 24.58 L 362.29 24.58 Q 360.97 25.6 359.47 25.6 L 359.47 25.6 L 359.47 25.6 Q 357.85 25.6 356.83 24.49 L 356.83 24.49 L 356.83 24.49 Q 355.81 23.38 355.81 21.4 L 355.81 21.4 L 355.81 21.4 Q 355.81 19.42 356.92 18.31 L 356.92 18.31 L 356.92 18.31 Q 358.03 17.2 359.71 17.2 L 359.71 17.2 L 359.71 17.2 L 359.71 17.2 L 359.71 17.2 L 359.71 17.2 L 359.71 17.2 Z  M 351.91 31.6 L 363.01 31.3 L 363.01 58.3 L 367.51 59.8 L 367.51 63.1 L 351.91 63.1 L 351.91 59.8 L 357.01 58.3 L 357.01 36.1 L 351.91 34.9 L 351.91 31.6 L 351.91 31.6 L 351.91 31.6 L 351.91 31.6 L 351.91 31.6 L 351.91 31.6 L 351.91 31.6 Z  M 386.41 34.9 L 386.41 34.9 L 386.41 34.9 Q 379.51 34.9 379.51 42.1 L 379.51 42.1 L 379.51 42.1 Q 379.51 45.4 381.19 47.35 L 381.19 47.35 L 381.19 47.35 Q 382.87 49.3 386.05 49.3 L 386.05 49.3 L 386.05 49.3 Q 389.71 49.3 391.36 47.59 L 391.36 47.59 L 391.36 47.59 Q 393.01 45.88 393.01 42.1 L 393.01 42.1 L 393.01 42.1 Q 393.01 34.9 386.41 34.9 L 386.41 34.9 L 386.41 34.9 L 386.41 34.9 L 386.41 34.9 L 386.41 34.9 L 386.41 34.9 Z  M 388.81 63.1 L 388.81 63.1 L 382.21 63.1 L 382.21 63.1 Q 381.91 63.22 381.04 63.85 L 381.04 63.85 L 381.04 63.85 Q 380.17 64.48 379.69 65.02 L 379.69 65.02 L 379.69 65.02 Q 378.31 66.58 378.31 68.5 L 378.31 68.5 L 378.31 68.5 Q 378.31 71.44 380.62 72.52 L 380.62 72.52 L 380.62 72.52 Q 382.93 73.6 387.61 73.6 L 387.61 73.6 L 387.61 73.6 Q 396.61 73.6 396.61 67.9 L 396.61 67.9 L 396.61 67.9 Q 396.61 65.14 394.66 64.12 L 394.66 64.12 L 394.66 64.12 Q 392.71 63.1 388.81 63.1 L 388.81 63.1 L 388.81 63.1 L 388.81 63.1 L 388.81 63.1 L 388.81 63.1 L 388.81 63.1 Z  M 267.25 63.1 L 249.25 63.1 L 249.25 59.5 L 254.35 58.3 L 254.35 25.9 L 249.25 24.7 L 249.25 21.4 L 260.65 21.1 L 268.15 21.1 L 268.15 21.1 Q 272.59 21.1 276.1 22.45 L 276.1 22.45 L 276.1 22.45 Q 279.61 23.8 282.04 26.41 L 282.04 26.41 L 282.04 26.41 Q 284.47 29.02 285.76 32.83 L 285.76 32.83 L 285.76 32.83 Q 287.05 36.64 287.05 41.56 L 287.05 41.56 L 287.05 41.56 Q 287.05 46.48 285.64 50.44 L 285.64 50.44 L 285.64 50.44 Q 284.23 54.4 281.65 57.22 L 281.65 57.22 L 281.65 57.22 Q 279.07 60.04 275.41 61.57 L 275.41 61.57 L 275.41 61.57 Q 271.75 63.1 267.25 63.1 L 267.25 63.1 L 267.25 63.1 L 267.25 63.1 L 267.25 63.1 L 267.25 63.1 L 267.25 63.1 L 267.25 63.1 Z  M 37.727 29.391 L 40.333 36.89 C 40.514 37.411 41.11 37.843 41.661 37.855 L 49.599 38.016 C 50.15 38.028 50.241 38.307 49.801 38.641 L 43.475 43.437 C 43.035 43.771 42.808 44.47 42.968 44.998 L 45.267 52.597 C 45.427 53.125 45.189 53.298 44.736 52.983 L 38.219 48.449 C 37.766 48.133 37.031 48.133 36.578 48.449 L 30.061 52.983 C 29.608 53.298 29.37 53.125 29.53 52.597 L 31.829 44.998 C 31.989 44.47 31.761 43.771 31.321 43.437 L 24.995 38.641 C 24.555 38.307 24.646 38.028 25.198 38.016 L 33.135 37.855 C 33.687 37.843 34.282 37.411 34.463 36.89 L 37.07 29.391 C 37.251 28.87 37.545 28.87 37.727 29.391 L 37.727 29.391 Z  M 35.29 63.1 L 17.29 63.1 L 17.29 59.5 L 22.39 58.3 L 22.39 25.9 L 17.29 24.7 L 17.29 21.4 L 28.69 21.1 L 36.19 21.1 L 36.19 21.1 Q 40.63 21.1 44.14 22.45 L 44.14 22.45 L 44.14 22.45 Q 47.65 23.8 50.08 26.41 L 50.08 26.41 L 50.08 26.41 Q 52.51 29.02 53.8 32.83 L 53.8 32.83 L 53.8 32.83 Q 55.09 36.64 55.09 41.56 L 55.09 41.56 L 55.09 41.56 Q 55.09 46.48 53.68 50.44 L 53.68 50.44 L 53.68 50.44 Q 52.27 54.4 49.69 57.22 L 49.69 57.22 L 49.69 57.22 Q 47.11 60.04 43.45 61.57 L 43.45 61.57 L 43.45 61.57 Q 39.79 63.1 35.29 63.1 L 35.29 63.1 L 35.29 63.1 L 35.29 63.1 L 35.29 63.1 L 35.29 63.1 L 35.29 63.1 L 35.29 63.1 Z  M 319.15 44.8 L 318.85 47.98 L 298.15 48.1 L 298.15 48.1 Q 298.15 53.02 300.52 55.96 L 300.52 55.96 L 300.52 55.96 Q 302.89 58.9 306.85 58.9 L 306.85 58.9 L 306.85 58.9 Q 308.17 58.9 309.49 58.66 L 309.49 58.66 L 309.49 58.66 Q 310.81 58.42 311.98 58.06 L 311.98 58.06 L 311.98 58.06 Q 313.15 57.7 314.11 57.25 L 314.11 57.25 L 314.11 57.25 Q 315.07 56.8 315.73 56.38 L 315.73 56.38 L 316.93 55.6 L 319.03 58.72 L 319.03 58.72 Q 316.99 60.34 315.28 61.27 L 315.28 61.27 L 315.28 61.27 Q 313.57 62.2 311.26 62.95 L 311.26 62.95 L 311.26 62.95 Q 308.95 63.7 306.25 63.7 L 306.25 63.7 L 306.25 63.7 Q 299.17 63.7 295.51 59.41 L 295.51 59.41 L 295.51 59.41 Q 291.85 55.12 291.85 47.68 L 291.85 47.68 L 291.85 47.68 Q 291.85 43.96 292.93 40.84 L 292.93 40.84 L 292.93 40.84 Q 294.01 37.72 295.96 35.47 L 295.96 35.47 L 295.96 35.47 Q 297.91 33.22 300.61 31.96 L 300.61 31.96 L 300.61 31.96 Q 303.31 30.7 306.55 30.7 L 306.55 30.7 L 306.55 30.7 Q 319.15 30.7 319.15 44.8 L 319.15 44.8 L 319.15 44.8 L 319.15 44.8 L 319.15 44.8 L 319.15 44.8 L 319.15 44.8 L 319.15 44.8 Z  M 474.31 44.8 L 474.01 47.98 L 453.31 48.1 L 453.31 48.1 Q 453.31 53.02 455.68 55.96 L 455.68 55.96 L 455.68 55.96 Q 458.05 58.9 462.01 58.9 L 462.01 58.9 L 462.01 58.9 Q 463.33 58.9 464.65 58.66 L 464.65 58.66 L 464.65 58.66 Q 465.97 58.42 467.14 58.06 L 467.14 58.06 L 467.14 58.06 Q 468.31 57.7 469.27 57.25 L 469.27 57.25 L 469.27 57.25 Q 470.23 56.8 470.89 56.38 L 470.89 56.38 L 472.09 55.6 L 474.19 58.72 L 474.19 58.72 Q 472.15 60.34 470.44 61.27 L 470.44 61.27 L 470.44 61.27 Q 468.73 62.2 466.42 62.95 L 466.42 62.95 L 466.42 62.95 Q 464.11 63.7 461.41 63.7 L 461.41 63.7 L 461.41 63.7 Q 454.33 63.7 450.67 59.41 L 450.67 59.41 L 450.67 59.41 Q 447.01 55.12 447.01 47.68 L 447.01 47.68 L 447.01 47.68 Q 447.01 43.96 448.09 40.84 L 448.09 40.84 L 448.09 40.84 Q 449.17 37.72 451.12 35.47 L 451.12 35.47 L 451.12 35.47 Q 453.07 33.22 455.77 31.96 L 455.77 31.96 L 455.77 31.96 Q 458.47 30.7 461.71 30.7 L 461.71 30.7 L 461.71 30.7 Q 474.31 30.7 474.31 44.8 L 474.31 44.8 L 474.31 44.8 L 474.31 44.8 L 474.31 44.8 L 474.31 44.8 L 474.31 44.8 L 474.31 44.8 Z  M 385.81 53.5 L 385.81 53.5 L 385.81 53.5 Q 383.17 53.5 381.31 52.96 L 381.31 52.96 L 381.01 58.6 L 390.31 58.6 L 390.31 58.6 Q 396.19 58.6 399.25 60.82 L 399.25 60.82 L 399.25 60.82 Q 402.31 63.04 402.31 67.54 L 402.31 67.54 L 402.31 67.54 Q 402.31 72.4 398.35 75.25 L 398.35 75.25 L 398.35 75.25 Q 394.39 78.1 386.71 78.1 L 386.71 78.1 L 386.71 78.1 Q 372.31 78.1 372.31 69.4 L 372.31 69.4 L 372.31 69.4 Q 372.31 65.62 376.33 62.98 L 376.33 62.98 L 376.33 62.98 Q 377.29 62.38 378.61 61.9 L 378.61 61.9 L 378.61 61.9 Q 376.99 61.66 376 60.76 L 376 60.76 L 376 60.76 Q 375.01 59.86 375.01 58.72 L 375.01 58.72 L 375.01 58.72 Q 375.01 56.74 377.35 52.96 L 377.35 52.96 L 378.13 51.7 L 378.13 51.7 Q 377.59 51.52 376.66 50.62 L 376.66 50.62 L 376.66 50.62 Q 375.73 49.72 375.13 48.82 L 375.13 48.82 L 375.13 48.82 Q 373.51 46.3 373.51 42.4 L 373.51 42.4 L 373.51 42.4 Q 373.51 36.7 377.08 33.7 L 377.08 33.7 L 377.08 33.7 Q 380.65 30.7 386.71 30.7 L 386.71 30.7 L 386.71 30.7 Q 390.07 30.7 392.05 31.54 L 392.05 31.54 L 392.71 31.84 L 403.21 31.6 L 403.21 34.9 L 397.39 35.74 L 397.39 35.74 Q 399.01 37.9 399.01 41.8 L 399.01 41.8 L 399.01 41.8 Q 399.01 47.68 395.47 50.59 L 395.47 50.59 L 395.47 50.59 Q 391.93 53.5 385.81 53.5 L 385.81 53.5 L 385.81 53.5 L 385.81 53.5 L 385.81 53.5 L 385.81 53.5 L 385.81 53.5 Z  M 269.687 29.391 L 272.293 36.89 C 272.474 37.411 273.07 37.843 273.621 37.855 L 281.559 38.016 C 282.11 38.028 282.201 38.307 281.761 38.641 L 275.435 43.437 C 274.995 43.771 274.768 44.47 274.928 44.998 L 277.227 52.597 C 277.387 53.125 277.149 53.298 276.696 52.983 L 270.179 48.449 C 269.726 48.133 268.991 48.133 268.538 48.449 L 262.021 52.983 C 261.568 53.298 261.33 53.125 261.49 52.597 L 263.789 44.998 C 263.949 44.47 263.721 43.771 263.281 43.437 L 256.955 38.641 C 256.515 38.307 256.606 38.028 257.158 38.016 L 265.095 37.855 C 265.647 37.843 266.242 37.411 266.423 36.89 L 269.03 29.391 C 269.211 28.87 269.505 28.87 269.687 29.391 Z " fill-rule="evenodd" fill="rgb(255,255,255)"/><polygon points="498.31,92.861,560.143,-9.32,617.718,95.32" fill="rgb(255,255,255)"/><polygon points="508,92.861,569.833,-9.32,627.408,95.32" fill="rgb(0,0,128)"/><polygon points="518.592,92.861,580.425,-9.32,638,95.32" fill="rgb(255,255,255)"/></g></g></svg>