<?xml version="1.0" standalone="no"?><!-- Generator: Gravit.io --><svg xmlns="http://www.w3.org/2000/svg" xmlns:xlink="http://www.w3.org/1999/xlink" style="isolation:isolate" viewBox="0 0 570 84" width="570" height="84"><defs><clipPath id="_clipPath_q8jGF4cM1QQOaLyXAJFWOqYkMRipBWO1"><rect width="570" height="84"/></clipPath></defs><g clip-path="url(#_clipPath_q8jGF4cM1QQOaLyXAJFWOqYkMRipBWO1)"><path d=" M 0 0 L 540 0 L 500 84 L 0 84 L 0 0 Z " fill="rgb(10,54,157)"/><defs><filter id="JTPfWGu1otk7bo1B8IAyQgdMuMLFZrbC" x="-200%" y="-200%" width="400%" height="400%" filterUnits="objectBoundingBox" color-interpolation-filters="sRGB"><feOffset xmlns="http://www.w3.org/2000/svg" in="SourceGraphic" dx="0" dy="0"/><feGaussianBlur xmlns="http://www.w3.org/2000/svg" stdDeviation="2.146804531419514" result="pf_100_offsetBlur"/><feComposite xmlns="http://www.w3.org/2000/svg" in="SourceGraphic" in2="pf_100_offsetBlur" result="pf_100_inverse" operator="out"/><feFlood xmlns="http://www.w3.org/2000/svg" flood-color="#000000" flood-opacity="0.35" result="pf_100_color"/><feComposite xmlns="http://www.w3.org/2000/svg" in="pf_100_color" in2="pf_100_inverse" operator="in" result="pf_100_shadow"/><feComposite xmlns="http://www.w3.org/2000/svg" in="pf_100_shadow" in2="SourceGraphic" operator="over"/></filter></defs><g filter="url(#JTPfWGu1otk7bo1B8IAyQgdMuMLFZrbC)"><path d=" M 298.39 42.6 L 298.39 42.6 L 312.79 42.6 L 312.79 42.6 Q 312.79 38.94 311.23 36.66 L 311.23 36.66 L 311.23 36.66 Q 309.67 34.38 306.19 34.38 L 306.19 34.38 L 306.19 34.38 Q 302.77 34.38 300.73 36.69 L 300.73 36.69 L 300.73 36.69 Q 298.69 39 298.39 42.6 L 298.39 42.6 L 298.39 42.6 L 298.39 42.6 L 298.39 42.6 L 298.39 42.6 L 298.39 42.6 Z  M 407.11 30.6 L 417.01 30.3 L 417.55 34.56 L 417.55 34.56 Q 418.15 34.08 419.23 33.24 L 419.23 33.24 L 419.23 33.24 Q 420.31 32.4 421.78 31.62 L 421.78 31.62 L 421.78 31.62 Q 423.25 30.84 425.02 30.27 L 425.02 30.27 L 425.02 30.27 Q 426.79 29.7 428.71 29.7 L 428.71 29.7 L 428.71 29.7 Q 433.57 29.7 435.94 32.55 L 435.94 32.55 L 435.94 32.55 Q 438.31 35.4 438.31 40.5 L 438.31 40.5 L 438.31 57.3 L 442.81 58.8 L 442.81 62.1 L 428.41 62.1 L 428.41 58.8 L 432.31 57.3 L 432.31 41.1 L 432.31 41.1 Q 432.31 37.86 431.05 36.33 L 431.05 36.33 L 431.05 36.33 Q 429.79 34.8 427.21 34.8 L 427.21 34.8 L 427.21 34.8 Q 425.95 34.8 424.72 35.13 L 424.72 35.13 L 424.72 35.13 Q 423.49 35.46 422.44 36 L 422.44 36 L 422.44 36 Q 421.39 36.54 420.58 37.17 L 420.58 37.17 L 420.58 37.17 Q 419.77 37.8 419.23 38.4 L 419.23 38.4 L 418.21 39.6 L 418.21 57.3 L 422.11 58.8 L 422.11 62.1 L 407.11 62.1 L 407.11 58.8 L 412.21 57.3 L 412.21 35.1 L 407.11 33.9 L 407.11 30.6 L 407.11 30.6 L 407.11 30.6 L 407.11 30.6 L 407.11 30.6 L 407.11 30.6 L 407.11 30.6 Z  M 59.89 30.6 L 70.99 30.3 L 70.99 57.3 L 75.49 58.8 L 75.49 62.1 L 59.89 62.1 L 59.89 58.8 L 64.99 57.3 L 64.99 35.1 L 59.89 33.9 L 59.89 30.6 L 59.89 30.6 L 59.89 30.6 L 59.89 30.6 L 59.89 30.6 L 59.89 30.6 L 59.89 30.6 Z  M 80.41 61.38 L 80.35 52.5 L 84.55 52.5 L 85.21 57.66 L 85.21 57.66 Q 85.81 57.9 87.1 58.05 L 87.1 58.05 L 87.1 58.05 Q 88.39 58.2 89.65 58.2 L 89.65 58.2 L 89.65 58.2 Q 93.55 58.2 95.32 57.03 L 95.32 57.03 L 95.32 57.03 Q 97.09 55.86 97.09 53.46 L 97.09 53.46 L 97.09 53.46 Q 97.09 51.84 95.86 50.88 L 95.86 50.88 L 95.86 50.88 Q 94.63 49.92 92.77 49.26 L 92.77 49.26 L 92.77 49.26 Q 90.91 48.6 88.72 47.94 L 88.72 47.94 L 88.72 47.94 Q 86.53 47.28 84.67 46.23 L 84.67 46.23 L 84.67 46.23 Q 82.81 45.18 81.58 43.5 L 81.58 43.5 L 81.58 43.5 Q 80.35 41.82 80.35 39.06 L 80.35 39.06 L 80.35 39.06 Q 80.35 34.56 83.35 32.19 L 83.35 32.19 L 83.35 32.19 Q 86.35 29.82 91.33 29.7 L 91.33 29.7 L 91.33 29.7 Q 93.43 29.76 95.62 30.03 L 95.62 30.03 L 95.62 30.03 Q 97.81 30.3 100.09 31.02 L 100.09 31.02 L 101.59 31.5 L 101.41 39.6 L 97.51 39.6 L 96.55 34.92 L 96.55 34.92 Q 96.07 34.74 94.69 34.47 L 94.69 34.47 L 94.69 34.47 Q 93.31 34.2 91.75 34.2 L 91.75 34.2 L 91.75 34.2 Q 90.67 34.2 89.71 34.38 L 89.71 34.38 L 89.71 34.38 Q 88.75 34.56 88 34.98 L 88 34.98 L 88 34.98 Q 87.25 35.4 86.8 36.18 L 86.8 36.18 L 86.8 36.18 Q 86.35 36.96 86.35 38.1 L 86.35 38.1 L 86.35 38.1 Q 86.35 39.84 87.58 40.83 L 87.58 40.83 L 87.58 40.83 Q 88.81 41.82 90.67 42.54 L 90.67 42.54 L 90.67 42.54 Q 92.53 43.26 94.72 43.92 L 94.72 43.92 L 94.72 43.92 Q 96.91 44.58 98.77 45.63 L 98.77 45.63 L 98.77 45.63 Q 100.63 46.68 101.86 48.3 L 101.86 48.3 L 101.86 48.3 Q 103.09 49.92 103.09 52.56 L 103.09 52.56 L 103.09 52.56 Q 103.09 55.08 102.01 57 L 102.01 57 L 102.01 57 Q 100.93 58.92 99.1 60.21 L 99.1 60.21 L 99.1 60.21 Q 97.27 61.5 94.84 62.13 L 94.84 62.13 L 94.84 62.13 Q 92.41 62.76 89.65 62.76 L 89.65 62.76 L 89.65 62.76 Q 88.63 62.76 87.52 62.67 L 87.52 62.67 L 87.52 62.67 Q 86.41 62.58 85.33 62.43 L 85.33 62.43 L 85.33 62.43 Q 84.25 62.28 83.32 62.1 L 83.32 62.1 L 83.32 62.1 Q 82.39 61.92 81.79 61.74 L 81.79 61.74 L 80.41 61.38 L 80.41 61.38 L 80.41 61.38 L 80.41 61.38 L 80.41 61.38 L 80.41 61.38 L 80.41 61.38 Z  M 113.05 23.04 L 119.05 21.84 L 119.05 30.6 L 127.75 30.6 L 127.75 35.1 L 119.05 35.1 L 119.05 54.36 L 119.05 54.36 Q 119.05 58.02 122.05 58.02 L 122.05 58.02 L 122.05 58.02 Q 123.97 58.02 126.73 56.52 L 126.73 56.52 L 128.35 59.7 L 128.35 59.7 Q 124.27 62.7 119.95 62.7 L 119.95 62.7 L 119.95 62.7 Q 116.89 62.7 114.97 60.69 L 114.97 60.69 L 114.97 60.69 Q 113.05 58.68 113.05 54 L 113.05 54 L 113.05 35.1 L 107.05 35.1 L 107.05 31.2 L 113.05 30.6 L 113.05 23.04 L 113.05 23.04 L 113.05 23.04 L 113.05 23.04 L 113.05 23.04 L 113.05 23.04 L 113.05 23.04 Z  M 131.95 30.6 L 141.85 30.3 L 142.39 34.68 L 142.39 34.68 Q 146.83 29.7 151.45 29.7 L 151.45 29.7 L 151.45 29.7 Q 153.91 29.7 156.19 30.42 L 156.19 30.42 L 156.85 30.6 L 156.55 39.3 L 152.65 39.3 L 151.75 34.8 L 151.75 34.8 Q 146.59 34.8 143.05 39.48 L 143.05 39.48 L 143.05 57.3 L 149.05 58.8 L 149.05 62.1 L 131.95 62.1 L 131.95 58.8 L 137.05 57.3 L 137.05 35.1 L 131.95 33.9 L 131.95 30.6 L 131.95 30.6 L 131.95 30.6 L 131.95 30.6 L 131.95 30.6 L 131.95 30.6 L 131.95 30.6 Z  M 167.65 16.2 L 167.65 16.2 L 167.65 16.2 Q 171.55 16.2 171.55 20.7 L 171.55 20.7 L 171.55 20.7 Q 171.55 22.56 170.23 23.58 L 170.23 23.58 L 170.23 23.58 Q 168.91 24.6 167.41 24.6 L 167.41 24.6 L 167.41 24.6 Q 165.79 24.6 164.77 23.49 L 164.77 23.49 L 164.77 23.49 Q 163.75 22.38 163.75 20.4 L 163.75 20.4 L 163.75 20.4 Q 163.75 18.42 164.86 17.31 L 164.86 17.31 L 164.86 17.31 Q 165.97 16.2 167.65 16.2 L 167.65 16.2 L 167.65 16.2 L 167.65 16.2 L 167.65 16.2 L 167.65 16.2 L 167.65 16.2 Z  M 159.85 30.6 L 170.95 30.3 L 170.95 57.3 L 175.45 58.8 L 175.45 62.1 L 159.85 62.1 L 159.85 58.8 L 164.95 57.3 L 164.95 35.1 L 159.85 33.9 L 159.85 30.6 L 159.85 30.6 L 159.85 30.6 L 159.85 30.6 L 159.85 30.6 L 159.85 30.6 L 159.85 30.6 Z  M 205.75 32.1 L 205.45 40.2 L 201.55 40.2 L 200.65 35.1 L 200.65 35.1 Q 198.31 34.5 195.25 34.5 L 195.25 34.5 L 195.25 34.5 Q 190.93 34.5 188.59 37.26 L 188.59 37.26 L 188.59 37.26 Q 186.25 40.02 186.25 45.84 L 186.25 45.84 L 186.25 45.84 Q 186.25 51.66 188.71 54.78 L 188.71 54.78 L 188.71 54.78 Q 191.17 57.9 195.55 57.9 L 195.55 57.9 L 195.55 57.9 Q 196.81 57.9 198.04 57.66 L 198.04 57.66 L 198.04 57.66 Q 199.27 57.42 200.38 57.03 L 200.38 57.03 L 200.38 57.03 Q 201.49 56.64 202.39 56.16 L 202.39 56.16 L 202.39 56.16 Q 203.29 55.68 203.83 55.2 L 203.83 55.2 L 204.85 54.3 L 206.95 57.9 L 206.29 58.44 L 206.29 58.44 Q 205.57 59.04 204.31 59.79 L 204.31 59.79 L 204.31 59.79 Q 203.05 60.54 201.52 61.17 L 201.52 61.17 L 201.52 61.17 Q 199.99 61.8 198.28 62.25 L 198.28 62.25 L 198.28 62.25 Q 196.57 62.7 194.95 62.7 L 194.95 62.7 L 194.95 62.7 Q 187.63 62.7 183.79 58.35 L 183.79 58.35 L 183.79 58.35 Q 179.95 54 179.95 46.44 L 179.95 46.44 L 179.95 46.44 Q 179.95 42.72 181.06 39.63 L 181.06 39.63 L 181.06 39.63 Q 182.17 36.54 184.21 34.35 L 184.21 34.35 L 184.21 34.35 Q 186.25 32.16 189.13 30.93 L 189.13 30.93 L 189.13 30.93 Q 192.01 29.7 195.55 29.7 L 195.55 29.7 L 195.55 29.7 Q 196.75 29.7 198.01 29.88 L 198.01 29.88 L 198.01 29.88 Q 199.27 30.06 200.47 30.3 L 200.47 30.3 L 200.47 30.3 Q 201.67 30.54 202.69 30.87 L 202.69 30.87 L 202.69 30.87 Q 203.71 31.2 204.43 31.5 L 204.43 31.5 L 205.75 32.1 L 205.75 32.1 L 205.75 32.1 L 205.75 32.1 L 205.75 32.1 L 205.75 32.1 L 205.75 32.1 Z  M 215.35 23.04 L 221.35 21.84 L 221.35 30.6 L 230.05 30.6 L 230.05 35.1 L 221.35 35.1 L 221.35 54.36 L 221.35 54.36 Q 221.35 58.02 224.35 58.02 L 224.35 58.02 L 224.35 58.02 Q 226.27 58.02 229.03 56.52 L 229.03 56.52 L 230.65 59.7 L 230.65 59.7 Q 226.57 62.7 222.25 62.7 L 222.25 62.7 L 222.25 62.7 Q 219.19 62.7 217.27 60.69 L 217.27 60.69 L 217.27 60.69 Q 215.35 58.68 215.35 54 L 215.35 54 L 215.35 35.1 L 209.35 35.1 L 209.35 31.2 L 215.35 30.6 L 215.35 23.04 L 215.35 23.04 L 215.35 23.04 L 215.35 23.04 L 215.35 23.04 L 215.35 23.04 L 215.35 23.04 Z  M 478.81 30.6 L 488.71 30.3 L 489.25 34.68 L 489.25 34.68 Q 493.69 29.7 498.31 29.7 L 498.31 29.7 L 498.31 29.7 Q 500.77 29.7 503.05 30.42 L 503.05 30.42 L 503.71 30.6 L 503.41 39.3 L 499.51 39.3 L 498.61 34.8 L 498.61 34.8 Q 493.45 34.8 489.91 39.48 L 489.91 39.48 L 489.91 57.3 L 495.91 58.8 L 495.91 62.1 L 478.81 62.1 L 478.81 58.8 L 483.91 57.3 L 483.91 35.1 L 478.81 33.9 L 478.81 30.6 L 478.81 30.6 L 478.81 30.6 L 478.81 30.6 L 478.81 30.6 L 478.81 30.6 L 478.81 30.6 Z  M 453.55 42.6 L 453.55 42.6 L 467.95 42.6 L 467.95 42.6 Q 467.95 38.94 466.39 36.66 L 466.39 36.66 L 466.39 36.66 Q 464.83 34.38 461.35 34.38 L 461.35 34.38 L 461.35 34.38 Q 457.93 34.38 455.89 36.69 L 455.89 36.69 L 455.89 36.69 Q 453.85 39 453.55 42.6 L 453.55 42.6 L 453.55 42.6 L 453.55 42.6 L 453.55 42.6 L 453.55 42.6 L 453.55 42.6 Z  M 67.69 16.2 L 67.69 16.2 L 67.69 16.2 Q 71.59 16.2 71.59 20.7 L 71.59 20.7 L 71.59 20.7 Q 71.59 22.56 70.27 23.58 L 70.27 23.58 L 70.27 23.58 Q 68.95 24.6 67.45 24.6 L 67.45 24.6 L 67.45 24.6 Q 65.83 24.6 64.81 23.49 L 64.81 23.49 L 64.81 23.49 Q 63.79 22.38 63.79 20.4 L 63.79 20.4 L 63.79 20.4 Q 63.79 18.42 64.9 17.31 L 64.9 17.31 L 64.9 17.31 Q 66.01 16.2 67.69 16.2 L 67.69 16.2 L 67.69 16.2 L 67.69 16.2 L 67.69 16.2 L 67.69 16.2 L 67.69 16.2 Z  M 324.07 61.38 L 324.01 52.5 L 328.21 52.5 L 328.87 57.66 L 328.87 57.66 Q 329.47 57.9 330.76 58.05 L 330.76 58.05 L 330.76 58.05 Q 332.05 58.2 333.31 58.2 L 333.31 58.2 L 333.31 58.2 Q 337.21 58.2 338.98 57.03 L 338.98 57.03 L 338.98 57.03 Q 340.75 55.86 340.75 53.46 L 340.75 53.46 L 340.75 53.46 Q 340.75 51.84 339.52 50.88 L 339.52 50.88 L 339.52 50.88 Q 338.29 49.92 336.43 49.26 L 336.43 49.26 L 336.43 49.26 Q 334.57 48.6 332.38 47.94 L 332.38 47.94 L 332.38 47.94 Q 330.19 47.28 328.33 46.23 L 328.33 46.23 L 328.33 46.23 Q 326.47 45.18 325.24 43.5 L 325.24 43.5 L 325.24 43.5 Q 324.01 41.82 324.01 39.06 L 324.01 39.06 L 324.01 39.06 Q 324.01 34.56 327.01 32.19 L 327.01 32.19 L 327.01 32.19 Q 330.01 29.82 334.99 29.7 L 334.99 29.7 L 334.99 29.7 Q 337.09 29.76 339.28 30.03 L 339.28 30.03 L 339.28 30.03 Q 341.47 30.3 343.75 31.02 L 343.75 31.02 L 345.25 31.5 L 345.07 39.6 L 341.17 39.6 L 340.21 34.92 L 340.21 34.92 Q 339.73 34.74 338.35 34.47 L 338.35 34.47 L 338.35 34.47 Q 336.97 34.2 335.41 34.2 L 335.41 34.2 L 335.41 34.2 Q 334.33 34.2 333.37 34.38 L 333.37 34.38 L 333.37 34.38 Q 332.41 34.56 331.66 34.98 L 331.66 34.98 L 331.66 34.98 Q 330.91 35.4 330.46 36.18 L 330.46 36.18 L 330.46 36.18 Q 330.01 36.96 330.01 38.1 L 330.01 38.1 L 330.01 38.1 Q 330.01 39.84 331.24 40.83 L 331.24 40.83 L 331.24 40.83 Q 332.47 41.82 334.33 42.54 L 334.33 42.54 L 334.33 42.54 Q 336.19 43.26 338.38 43.92 L 338.38 43.92 L 338.38 43.92 Q 340.57 44.58 342.43 45.63 L 342.43 45.63 L 342.43 45.63 Q 344.29 46.68 345.52 48.3 L 345.52 48.3 L 345.52 48.3 Q 346.75 49.92 346.75 52.56 L 346.75 52.56 L 346.75 52.56 Q 346.75 55.08 345.67 57 L 345.67 57 L 345.67 57 Q 344.59 58.92 342.76 60.21 L 342.76 60.21 L 342.76 60.21 Q 340.93 61.5 338.5 62.13 L 338.5 62.13 L 338.5 62.13 Q 336.07 62.76 333.31 62.76 L 333.31 62.76 L 333.31 62.76 Q 332.29 62.76 331.18 62.67 L 331.18 62.67 L 331.18 62.67 Q 330.07 62.58 328.99 62.43 L 328.99 62.43 L 328.99 62.43 Q 327.91 62.28 326.98 62.1 L 326.98 62.1 L 326.98 62.1 Q 326.05 61.92 325.45 61.74 L 325.45 61.74 L 324.07 61.38 L 324.07 61.38 L 324.07 61.38 L 324.07 61.38 L 324.07 61.38 L 324.07 61.38 L 324.07 61.38 Z  M 359.71 16.2 L 359.71 16.2 L 359.71 16.2 Q 363.61 16.2 363.61 20.7 L 363.61 20.7 L 363.61 20.7 Q 363.61 22.56 362.29 23.58 L 362.29 23.58 L 362.29 23.58 Q 360.97 24.6 359.47 24.6 L 359.47 24.6 L 359.47 24.6 Q 357.85 24.6 356.83 23.49 L 356.83 23.49 L 356.83 23.49 Q 355.81 22.38 355.81 20.4 L 355.81 20.4 L 355.81 20.4 Q 355.81 18.42 356.92 17.31 L 356.92 17.31 L 356.92 17.31 Q 358.03 16.2 359.71 16.2 L 359.71 16.2 L 359.71 16.2 L 359.71 16.2 L 359.71 16.2 L 359.71 16.2 L 359.71 16.2 Z  M 351.91 30.6 L 363.01 30.3 L 363.01 57.3 L 367.51 58.8 L 367.51 62.1 L 351.91 62.1 L 351.91 58.8 L 357.01 57.3 L 357.01 35.1 L 351.91 33.9 L 351.91 30.6 L 351.91 30.6 L 351.91 30.6 L 351.91 30.6 L 351.91 30.6 L 351.91 30.6 L 351.91 30.6 Z  M 386.41 33.9 L 386.41 33.9 L 386.41 33.9 Q 379.51 33.9 379.51 41.1 L 379.51 41.1 L 379.51 41.1 Q 379.51 44.4 381.19 46.35 L 381.19 46.35 L 381.19 46.35 Q 382.87 48.3 386.05 48.3 L 386.05 48.3 L 386.05 48.3 Q 389.71 48.3 391.36 46.59 L 391.36 46.59 L 391.36 46.59 Q 393.01 44.88 393.01 41.1 L 393.01 41.1 L 393.01 41.1 Q 393.01 33.9 386.41 33.9 L 386.41 33.9 L 386.41 33.9 L 386.41 33.9 L 386.41 33.9 L 386.41 33.9 L 386.41 33.9 Z  M 388.81 62.1 L 388.81 62.1 L 382.21 62.1 L 382.21 62.1 Q 381.91 62.22 381.04 62.85 L 381.04 62.85 L 381.04 62.85 Q 380.17 63.48 379.69 64.02 L 379.69 64.02 L 379.69 64.02 Q 378.31 65.58 378.31 67.5 L 378.31 67.5 L 378.31 67.5 Q 378.31 70.44 380.62 71.52 L 380.62 71.52 L 380.62 71.52 Q 382.93 72.6 387.61 72.6 L 387.61 72.6 L 387.61 72.6 Q 396.61 72.6 396.61 66.9 L 396.61 66.9 L 396.61 66.9 Q 396.61 64.14 394.66 63.12 L 394.66 63.12 L 394.66 63.12 Q 392.71 62.1 388.81 62.1 L 388.81 62.1 L 388.81 62.1 L 388.81 62.1 L 388.81 62.1 L 388.81 62.1 L 388.81 62.1 Z  M 267.25 62.1 L 249.25 62.1 L 249.25 58.5 L 254.35 57.3 L 254.35 24.9 L 249.25 23.7 L 249.25 20.4 L 260.65 20.1 L 268.15 20.1 L 268.15 20.1 Q 272.59 20.1 276.1 21.45 L 276.1 21.45 L 276.1 21.45 Q 279.61 22.8 282.04 25.41 L 282.04 25.41 L 282.04 25.41 Q 284.47 28.02 285.76 31.83 L 285.76 31.83 L 285.76 31.83 Q 287.05 35.64 287.05 40.56 L 287.05 40.56 L 287.05 40.56 Q 287.05 45.48 285.64 49.44 L 285.64 49.44 L 285.64 49.44 Q 284.23 53.4 281.65 56.22 L 281.65 56.22 L 281.65 56.22 Q 279.07 59.04 275.41 60.57 L 275.41 60.57 L 275.41 60.57 Q 271.75 62.1 267.25 62.1 L 267.25 62.1 L 267.25 62.1 L 267.25 62.1 L 267.25 62.1 L 267.25 62.1 L 267.25 62.1 L 267.25 62.1 Z  M 37.727 28.391 L 40.333 35.89 C 40.514 36.411 41.11 36.843 41.661 36.855 L 49.599 37.016 C 50.15 37.028 50.241 37.307 49.801 37.641 L 43.475 42.437 C 43.035 42.771 42.808 43.47 42.968 43.998 L 45.267 51.597 C 45.427 52.125 45.189 52.298 44.736 51.983 L 38.219 47.449 C 37.766 47.133 37.031 47.133 36.578 47.449 L 30.061 51.983 C 29.608 52.298 29.37 52.125 29.53 51.597 L 31.829 43.998 C 31.989 43.47 31.761 42.771 31.321 42.437 L 24.995 37.641 C 24.555 37.307 24.646 37.028 25.198 37.016 L 33.135 36.855 C 33.687 36.843 34.282 36.411 34.463 35.89 L 37.07 28.391 C 37.251 27.87 37.545 27.87 37.727 28.391 L 37.727 28.391 Z  M 35.29 62.1 L 17.29 62.1 L 17.29 58.5 L 22.39 57.3 L 22.39 24.9 L 17.29 23.7 L 17.29 20.4 L 28.69 20.1 L 36.19 20.1 L 36.19 20.1 Q 40.63 20.1 44.14 21.45 L 44.14 21.45 L 44.14 21.45 Q 47.65 22.8 50.08 25.41 L 50.08 25.41 L 50.08 25.41 Q 52.51 28.02 53.8 31.83 L 53.8 31.83 L 53.8 31.83 Q 55.09 35.64 55.09 40.56 L 55.09 40.56 L 55.09 40.56 Q 55.09 45.48 53.68 49.44 L 53.68 49.44 L 53.68 49.44 Q 52.27 53.4 49.69 56.22 L 49.69 56.22 L 49.69 56.22 Q 47.11 59.04 43.45 60.57 L 43.45 60.57 L 43.45 60.57 Q 39.79 62.1 35.29 62.1 L 35.29 62.1 L 35.29 62.1 L 35.29 62.1 L 35.29 62.1 L 35.29 62.1 L 35.29 62.1 L 35.29 62.1 Z  M 319.15 43.8 L 318.85 46.98 L 298.15 47.1 L 298.15 47.1 Q 298.15 52.02 300.52 54.96 L 300.52 54.96 L 300.52 54.96 Q 302.89 57.9 306.85 57.9 L 306.85 57.9 L 306.85 57.9 Q 308.17 57.9 309.49 57.66 L 309.49 57.66 L 309.49 57.66 Q 310.81 57.42 311.98 57.06 L 311.98 57.06 L 311.98 57.06 Q 313.15 56.7 314.11 56.25 L 314.11 56.25 L 314.11 56.25 Q 315.07 55.8 315.73 55.38 L 315.73 55.38 L 316.93 54.6 L 319.03 57.72 L 319.03 57.72 Q 316.99 59.34 315.28 60.27 L 315.28 60.27 L 315.28 60.27 Q 313.57 61.2 311.26 61.95 L 311.26 61.95 L 311.26 61.95 Q 308.95 62.7 306.25 62.7 L 306.25 62.7 L 306.25 62.7 Q 299.17 62.7 295.51 58.41 L 295.51 58.41 L 295.51 58.41 Q 291.85 54.12 291.85 46.68 L 291.85 46.68 L 291.85 46.68 Q 291.85 42.96 292.93 39.84 L 292.93 39.84 L 292.93 39.84 Q 294.01 36.72 295.96 34.47 L 295.96 34.47 L 295.96 34.47 Q 297.91 32.22 300.61 30.96 L 300.61 30.96 L 300.61 30.96 Q 303.31 29.7 306.55 29.7 L 306.55 29.7 L 306.55 29.7 Q 319.15 29.7 319.15 43.8 L 319.15 43.8 L 319.15 43.8 L 319.15 43.8 L 319.15 43.8 L 319.15 43.8 L 319.15 43.8 L 319.15 43.8 Z  M 474.31 43.8 L 474.01 46.98 L 453.31 47.1 L 453.31 47.1 Q 453.31 52.02 455.68 54.96 L 455.68 54.96 L 455.68 54.96 Q 458.05 57.9 462.01 57.9 L 462.01 57.9 L 462.01 57.9 Q 463.33 57.9 464.65 57.66 L 464.65 57.66 L 464.65 57.66 Q 465.97 57.42 467.14 57.06 L 467.14 57.06 L 467.14 57.06 Q 468.31 56.7 469.27 56.25 L 469.27 56.25 L 469.27 56.25 Q 470.23 55.8 470.89 55.38 L 470.89 55.38 L 472.09 54.6 L 474.19 57.72 L 474.19 57.72 Q 472.15 59.34 470.44 60.27 L 470.44 60.27 L 470.44 60.27 Q 468.73 61.2 466.42 61.95 L 466.42 61.95 L 466.42 61.95 Q 464.11 62.7 461.41 62.7 L 461.41 62.7 L 461.41 62.7 Q 454.33 62.7 450.67 58.41 L 450.67 58.41 L 450.67 58.41 Q 447.01 54.12 447.01 46.68 L 447.01 46.68 L 447.01 46.68 Q 447.01 42.96 448.09 39.84 L 448.09 39.84 L 448.09 39.84 Q 449.17 36.72 451.12 34.47 L 451.12 34.47 L 451.12 34.47 Q 453.07 32.22 455.77 30.96 L 455.77 30.96 L 455.77 30.96 Q 458.47 29.7 461.71 29.7 L 461.71 29.7 L 461.71 29.7 Q 474.31 29.7 474.31 43.8 L 474.31 43.8 L 474.31 43.8 L 474.31 43.8 L 474.31 43.8 L 474.31 43.8 L 474.31 43.8 L 474.31 43.8 Z  M 385.81 52.5 L 385.81 52.5 L 385.81 52.5 Q 383.17 52.5 381.31 51.96 L 381.31 51.96 L 381.01 57.6 L 390.31 57.6 L 390.31 57.6 Q 396.19 57.6 399.25 59.82 L 399.25 59.82 L 399.25 59.82 Q 402.31 62.04 402.31 66.54 L 402.31 66.54 L 402.31 66.54 Q 402.31 71.4 398.35 74.25 L 398.35 74.25 L 398.35 74.25 Q 394.39 77.1 386.71 77.1 L 386.71 77.1 L 386.71 77.1 Q 372.31 77.1 372.31 68.4 L 372.31 68.4 L 372.31 68.4 Q 372.31 64.62 376.33 61.98 L 376.33 61.98 L 376.33 61.98 Q 377.29 61.38 378.61 60.9 L 378.61 60.9 L 378.61 60.9 Q 376.99 60.66 376 59.76 L 376 59.76 L 376 59.76 Q 375.01 58.86 375.01 57.72 L 375.01 57.72 L 375.01 57.72 Q 375.01 55.74 377.35 51.96 L 377.35 51.96 L 378.13 50.7 L 378.13 50.7 Q 377.59 50.52 376.66 49.62 L 376.66 49.62 L 376.66 49.62 Q 375.73 48.72 375.13 47.82 L 375.13 47.82 L 375.13 47.82 Q 373.51 45.3 373.51 41.4 L 373.51 41.4 L 373.51 41.4 Q 373.51 35.7 377.08 32.7 L 377.08 32.7 L 377.08 32.7 Q 380.65 29.7 386.71 29.7 L 386.71 29.7 L 386.71 29.7 Q 390.07 29.7 392.05 30.54 L 392.05 30.54 L 392.71 30.84 L 403.21 30.6 L 403.21 33.9 L 397.39 34.74 L 397.39 34.74 Q 399.01 36.9 399.01 40.8 L 399.01 40.8 L 399.01 40.8 Q 399.01 46.68 395.47 49.59 L 395.47 49.59 L 395.47 49.59 Q 391.93 52.5 385.81 52.5 L 385.81 52.5 L 385.81 52.5 L 385.81 52.5 L 385.81 52.5 L 385.81 52.5 L 385.81 52.5 Z  M 269.687 28.391 L 272.293 35.89 C 272.474 36.411 273.07 36.843 273.621 36.855 L 281.559 37.016 C 282.11 37.028 282.201 37.307 281.761 37.641 L 275.435 42.437 C 274.995 42.771 274.768 43.47 274.928 43.998 L 277.227 51.597 C 277.387 52.125 277.149 52.298 276.696 51.983 L 270.179 47.449 C 269.726 47.133 268.991 47.133 268.538 47.449 L 262.021 51.983 C 261.568 52.298 261.33 52.125 261.49 51.597 L 263.789 43.998 C 263.949 43.47 263.721 42.771 263.281 42.437 L 256.955 37.641 C 256.515 37.307 256.606 37.028 257.158 37.016 L 265.095 36.855 C 265.647 36.843 266.242 36.411 266.423 35.89 L 269.03 28.391 C 269.211 27.87 269.505 27.87 269.687 28.391 Z " fill-rule="evenodd" fill="rgb(255,255,255)"/></g><path d=" M 570 0 L 555 0 L 515 84 L 530 84 L 570 0 Z " fill="rgb(10,54,157)"/><path d=" M 540 0 L 500 84 L 515 84 L 555 0 L 540 0 Z " fill="rgb(255,255,255)"/></g></svg>