<?xml version="1.0" standalone="no"?><!-- Generator: Gravit.io --><svg xmlns="http://www.w3.org/2000/svg" xmlns:xlink="http://www.w3.org/1999/xlink" style="isolation:isolate" viewBox="304.5 282.803 524.5 84.395" width="524.5" height="84.395"><defs><clipPath id="_clipPath_nyg9dz8SPYvHE8PSxO3vAlOTChz46WWC"><rect x="304.5" y="282.803" width="524.5" height="84.395"/></clipPath></defs><g clip-path="url(#_clipPath_nyg9dz8SPYvHE8PSxO3vAlOTChz46WWC)"><rect x="304.5" y="282.803" width="524.5" height="84.395" transform="matrix(1,0,0,1,0,0)" fill="rgb(0,0,128)"/><defs><filter id="iCe2BI0yg5l6Q9FFAD3mqKCx3IAFu07R" x="-200%" y="-200%" width="400%" height="400%" filterUnits="objectBoundingBox" color-interpolation-filters="sRGB"><feOffset xmlns="http://www.w3.org/2000/svg" in="SourceGraphic" dx="0" dy="0"/><feGaussianBlur xmlns="http://www.w3.org/2000/svg" stdDeviation="2.146804531419514" result="pf_100_offsetBlur"/><feComposite xmlns="http://www.w3.org/2000/svg" in="SourceGraphic" in2="pf_100_offsetBlur" result="pf_100_inverse" operator="out"/><feFlood xmlns="http://www.w3.org/2000/svg" flood-color="#000000" flood-opacity="0.35" result="pf_100_color"/><feComposite xmlns="http://www.w3.org/2000/svg" in="pf_100_color" in2="pf_100_inverse" operator="in" result="pf_100_shadow"/><feComposite xmlns="http://www.w3.org/2000/svg" in="pf_100_shadow" in2="SourceGraphic" operator="over"/></filter></defs><g filter="url(#iCe2BI0yg5l6Q9FFAD3mqKCx3IAFu07R)"><path d=" M 604.293 325.603 L 604.293 325.603 L 618.761 325.603 L 618.761 325.603 Q 618.761 321.926 617.193 319.635 L 617.193 319.635 L 617.193 319.635 Q 615.626 317.344 612.13 317.344 L 612.13 317.344 L 612.13 317.344 Q 608.694 317.344 606.644 319.665 L 606.644 319.665 L 606.644 319.665 Q 604.595 321.986 604.293 325.603 L 604.293 325.603 L 604.293 325.603 L 604.293 325.603 L 604.293 325.603 L 604.293 325.603 L 604.293 325.603 Z  M 713.524 313.546 L 723.471 313.245 L 724.013 317.525 L 724.013 317.525 Q 724.616 317.043 725.701 316.199 L 725.701 316.199 L 725.701 316.199 Q 726.786 315.355 728.263 314.571 L 728.263 314.571 L 728.263 314.571 Q 729.74 313.788 731.519 313.215 L 731.519 313.215 L 731.519 313.215 Q 733.297 312.642 735.226 312.642 L 735.226 312.642 L 735.226 312.642 Q 740.109 312.642 742.49 315.506 L 742.49 315.506 L 742.49 315.506 Q 744.871 318.369 744.871 323.493 L 744.871 323.493 L 744.871 340.372 L 749.392 341.879 L 749.392 345.195 L 734.924 345.195 L 734.924 341.879 L 738.843 340.372 L 738.843 324.096 L 738.843 324.096 Q 738.843 320.841 737.577 319.303 L 737.577 319.303 L 737.577 319.303 Q 736.311 317.766 733.719 317.766 L 733.719 317.766 L 733.719 317.766 Q 732.453 317.766 731.217 318.098 L 731.217 318.098 L 731.217 318.098 Q 729.981 318.429 728.926 318.972 L 728.926 318.972 L 728.926 318.972 Q 727.871 319.514 727.058 320.147 L 727.058 320.147 L 727.058 320.147 Q 726.244 320.78 725.701 321.383 L 725.701 321.383 L 724.677 322.589 L 724.677 340.372 L 728.595 341.879 L 728.595 345.195 L 713.524 345.195 L 713.524 341.879 L 718.648 340.372 L 718.648 318.068 L 713.524 316.862 L 713.524 313.546 L 713.524 313.546 L 713.524 313.546 L 713.524 313.546 L 713.524 313.546 L 713.524 313.546 L 713.524 313.546 Z  M 364.672 313.546 L 375.824 313.245 L 375.824 340.372 L 380.345 341.879 L 380.345 345.195 L 364.672 345.195 L 364.672 341.879 L 369.796 340.372 L 369.796 318.068 L 364.672 316.862 L 364.672 313.546 L 364.672 313.546 L 364.672 313.546 L 364.672 313.546 L 364.672 313.546 L 364.672 313.546 L 364.672 313.546 Z  M 385.288 344.471 L 385.228 335.549 L 389.448 335.549 L 390.111 340.734 L 390.111 340.734 Q 390.713 340.975 392.01 341.125 L 392.01 341.125 L 392.01 341.125 Q 393.306 341.276 394.572 341.276 L 394.572 341.276 L 394.572 341.276 Q 398.49 341.276 400.268 340.101 L 400.268 340.101 L 400.268 340.101 Q 402.047 338.925 402.047 336.514 L 402.047 336.514 L 402.047 336.514 Q 402.047 334.886 400.811 333.922 L 400.811 333.922 L 400.811 333.922 Q 399.575 332.957 397.706 332.294 L 397.706 332.294 L 397.706 332.294 Q 395.837 331.631 393.637 330.968 L 393.637 330.968 L 393.637 330.968 Q 391.437 330.305 389.568 329.25 L 389.568 329.25 L 389.568 329.25 Q 387.699 328.195 386.464 326.507 L 386.464 326.507 L 386.464 326.507 Q 385.228 324.819 385.228 322.046 L 385.228 322.046 L 385.228 322.046 Q 385.228 317.525 388.242 315.144 L 388.242 315.144 L 388.242 315.144 Q 391.256 312.763 396.259 312.642 L 396.259 312.642 L 396.259 312.642 Q 398.369 312.702 400.57 312.974 L 400.57 312.974 L 400.57 312.974 Q 402.77 313.245 405.061 313.968 L 405.061 313.968 L 406.568 314.451 L 406.387 322.589 L 402.469 322.589 L 401.504 317.887 L 401.504 317.887 Q 401.022 317.706 399.635 317.435 L 399.635 317.435 L 399.635 317.435 Q 398.249 317.163 396.681 317.163 L 396.681 317.163 L 396.681 317.163 Q 395.596 317.163 394.632 317.344 L 394.632 317.344 L 394.632 317.344 Q 393.667 317.525 392.914 317.947 L 392.914 317.947 L 392.914 317.947 Q 392.16 318.369 391.708 319.153 L 391.708 319.153 L 391.708 319.153 Q 391.256 319.936 391.256 321.082 L 391.256 321.082 L 391.256 321.082 Q 391.256 322.83 392.492 323.824 L 392.492 323.824 L 392.492 323.824 Q 393.728 324.819 395.596 325.543 L 395.596 325.543 L 395.596 325.543 Q 397.465 326.266 399.665 326.929 L 399.665 326.929 L 399.665 326.929 Q 401.866 327.592 403.734 328.647 L 403.734 328.647 L 403.734 328.647 Q 405.603 329.702 406.839 331.33 L 406.839 331.33 L 406.839 331.33 Q 408.075 332.957 408.075 335.61 L 408.075 335.61 L 408.075 335.61 Q 408.075 338.141 406.99 340.071 L 406.99 340.071 L 406.99 340.071 Q 405.905 342 404.066 343.296 L 404.066 343.296 L 404.066 343.296 Q 402.227 344.592 399.786 345.225 L 399.786 345.225 L 399.786 345.225 Q 397.345 345.858 394.572 345.858 L 394.572 345.858 L 394.572 345.858 Q 393.547 345.858 392.432 345.767 L 392.432 345.767 L 392.432 345.767 Q 391.316 345.677 390.231 345.526 L 390.231 345.526 L 390.231 345.526 Q 389.146 345.375 388.212 345.195 L 388.212 345.195 L 388.212 345.195 Q 387.277 345.014 386.675 344.833 L 386.675 344.833 L 385.288 344.471 L 385.288 344.471 L 385.288 344.471 L 385.288 344.471 L 385.288 344.471 L 385.288 344.471 L 385.288 344.471 Z  M 418.082 305.951 L 424.11 304.745 L 424.11 313.546 L 432.851 313.546 L 432.851 318.068 L 424.11 318.068 L 424.11 337.418 L 424.11 337.418 Q 424.11 341.095 427.124 341.095 L 427.124 341.095 L 427.124 341.095 Q 429.053 341.095 431.826 339.588 L 431.826 339.588 L 433.454 342.783 L 433.454 342.783 Q 429.354 345.797 425.014 345.797 L 425.014 345.797 L 425.014 345.797 Q 421.94 345.797 420.011 343.778 L 420.011 343.778 L 420.011 343.778 Q 418.082 341.758 418.082 337.056 L 418.082 337.056 L 418.082 318.068 L 412.053 318.068 L 412.053 314.149 L 418.082 313.546 L 418.082 305.951 L 418.082 305.951 L 418.082 305.951 L 418.082 305.951 L 418.082 305.951 L 418.082 305.951 L 418.082 305.951 Z  M 437.07 313.546 L 447.017 313.245 L 447.56 317.646 L 447.56 317.646 Q 452.02 312.642 456.662 312.642 L 456.662 312.642 L 456.662 312.642 Q 459.134 312.642 461.424 313.366 L 461.424 313.366 L 462.088 313.546 L 461.786 322.287 L 457.868 322.287 L 456.964 317.766 L 456.964 317.766 Q 451.779 317.766 448.223 322.468 L 448.223 322.468 L 448.223 340.372 L 454.251 341.879 L 454.251 345.195 L 437.07 345.195 L 437.07 341.879 L 442.194 340.372 L 442.194 318.068 L 437.07 316.862 L 437.07 313.546 L 437.07 313.546 L 437.07 313.546 L 437.07 313.546 L 437.07 313.546 L 437.07 313.546 L 437.07 313.546 Z  M 472.938 299.079 L 472.938 299.079 L 472.938 299.079 Q 476.857 299.079 476.857 303.6 L 476.857 303.6 L 476.857 303.6 Q 476.857 305.469 475.53 306.493 L 475.53 306.493 L 475.53 306.493 Q 474.204 307.518 472.697 307.518 L 472.697 307.518 L 472.697 307.518 Q 471.07 307.518 470.045 306.403 L 470.045 306.403 L 470.045 306.403 Q 469.02 305.288 469.02 303.298 L 469.02 303.298 L 469.02 303.298 Q 469.02 301.309 470.135 300.194 L 470.135 300.194 L 470.135 300.194 Q 471.25 299.079 472.938 299.079 L 472.938 299.079 L 472.938 299.079 L 472.938 299.079 L 472.938 299.079 L 472.938 299.079 L 472.938 299.079 Z  M 465.102 313.546 L 476.254 313.245 L 476.254 340.372 L 480.775 341.879 L 480.775 345.195 L 465.102 345.195 L 465.102 341.879 L 470.226 340.372 L 470.226 318.068 L 465.102 316.862 L 465.102 313.546 L 465.102 313.546 L 465.102 313.546 L 465.102 313.546 L 465.102 313.546 L 465.102 313.546 L 465.102 313.546 Z  M 511.217 315.053 L 510.916 323.192 L 506.998 323.192 L 506.093 318.068 L 506.093 318.068 Q 503.742 317.465 500.668 317.465 L 500.668 317.465 L 500.668 317.465 Q 496.328 317.465 493.977 320.238 L 493.977 320.238 L 493.977 320.238 Q 491.626 323.011 491.626 328.858 L 491.626 328.858 L 491.626 328.858 Q 491.626 334.705 494.097 337.84 L 494.097 337.84 L 494.097 337.84 Q 496.569 340.975 500.97 340.975 L 500.97 340.975 L 500.97 340.975 Q 502.235 340.975 503.471 340.734 L 503.471 340.734 L 503.471 340.734 Q 504.707 340.493 505.822 340.101 L 505.822 340.101 L 505.822 340.101 Q 506.937 339.709 507.842 339.227 L 507.842 339.227 L 507.842 339.227 Q 508.746 338.744 509.288 338.262 L 509.288 338.262 L 510.313 337.358 L 512.423 340.975 L 511.76 341.517 L 511.76 341.517 Q 511.037 342.12 509.771 342.874 L 509.771 342.874 L 509.771 342.874 Q 508.505 343.627 506.968 344.26 L 506.968 344.26 L 506.968 344.26 Q 505.43 344.893 503.712 345.345 L 503.712 345.345 L 503.712 345.345 Q 501.994 345.797 500.367 345.797 L 500.367 345.797 L 500.367 345.797 Q 493.012 345.797 489.154 341.427 L 489.154 341.427 L 489.154 341.427 Q 485.296 337.056 485.296 329.461 L 485.296 329.461 L 485.296 329.461 Q 485.296 325.723 486.411 322.619 L 486.411 322.619 L 486.411 322.619 Q 487.527 319.514 489.576 317.314 L 489.576 317.314 L 489.576 317.314 Q 491.626 315.114 494.519 313.878 L 494.519 313.878 L 494.519 313.878 Q 497.413 312.642 500.97 312.642 L 500.97 312.642 L 500.97 312.642 Q 502.175 312.642 503.441 312.823 L 503.441 312.823 L 503.441 312.823 Q 504.707 313.004 505.913 313.245 L 505.913 313.245 L 505.913 313.245 Q 507.118 313.486 508.143 313.818 L 508.143 313.818 L 508.143 313.818 Q 509.168 314.149 509.891 314.451 L 509.891 314.451 L 511.217 315.053 L 511.217 315.053 L 511.217 315.053 L 511.217 315.053 L 511.217 315.053 L 511.217 315.053 L 511.217 315.053 Z  M 520.863 305.951 L 526.891 304.745 L 526.891 313.546 L 535.632 313.546 L 535.632 318.068 L 526.891 318.068 L 526.891 337.418 L 526.891 337.418 Q 526.891 341.095 529.905 341.095 L 529.905 341.095 L 529.905 341.095 Q 531.834 341.095 534.607 339.588 L 534.607 339.588 L 536.235 342.783 L 536.235 342.783 Q 532.135 345.797 527.795 345.797 L 527.795 345.797 L 527.795 345.797 Q 524.721 345.797 522.792 343.778 L 522.792 343.778 L 522.792 343.778 Q 520.863 341.758 520.863 337.056 L 520.863 337.056 L 520.863 318.068 L 514.834 318.068 L 514.834 314.149 L 520.863 313.546 L 520.863 305.951 L 520.863 305.951 L 520.863 305.951 L 520.863 305.951 L 520.863 305.951 L 520.863 305.951 L 520.863 305.951 Z  M 785.561 313.546 L 795.508 313.245 L 796.051 317.646 L 796.051 317.646 Q 800.511 312.642 805.153 312.642 L 805.153 312.642 L 805.153 312.642 Q 807.625 312.642 809.915 313.366 L 809.915 313.366 L 810.579 313.546 L 810.277 322.287 L 806.359 322.287 L 805.455 317.766 L 805.455 317.766 Q 800.27 317.766 796.714 322.468 L 796.714 322.468 L 796.714 340.372 L 802.742 341.879 L 802.742 345.195 L 785.561 345.195 L 785.561 341.879 L 790.685 340.372 L 790.685 318.068 L 785.561 316.862 L 785.561 313.546 L 785.561 313.546 L 785.561 313.546 L 785.561 313.546 L 785.561 313.546 L 785.561 313.546 L 785.561 313.546 Z  M 760.183 325.603 L 760.183 325.603 L 774.65 325.603 L 774.65 325.603 Q 774.65 321.926 773.083 319.635 L 773.083 319.635 L 773.083 319.635 Q 771.516 317.344 768.019 317.344 L 768.019 317.344 L 768.019 317.344 Q 764.583 317.344 762.534 319.665 L 762.534 319.665 L 762.534 319.665 Q 760.484 321.986 760.183 325.603 L 760.183 325.603 L 760.183 325.603 L 760.183 325.603 L 760.183 325.603 L 760.183 325.603 L 760.183 325.603 Z  M 372.508 299.079 L 372.508 299.079 L 372.508 299.079 Q 376.427 299.079 376.427 303.6 L 376.427 303.6 L 376.427 303.6 Q 376.427 305.469 375.1 306.493 L 375.1 306.493 L 375.1 306.493 Q 373.774 307.518 372.267 307.518 L 372.267 307.518 L 372.267 307.518 Q 370.64 307.518 369.615 306.403 L 369.615 306.403 L 369.615 306.403 Q 368.59 305.288 368.59 303.298 L 368.59 303.298 L 368.59 303.298 Q 368.59 301.309 369.705 300.194 L 369.705 300.194 L 369.705 300.194 Q 370.82 299.079 372.508 299.079 L 372.508 299.079 L 372.508 299.079 L 372.508 299.079 L 372.508 299.079 L 372.508 299.079 L 372.508 299.079 Z  M 630.094 344.471 L 630.034 335.549 L 634.253 335.549 L 634.916 340.734 L 634.916 340.734 Q 635.519 340.975 636.815 341.125 L 636.815 341.125 L 636.815 341.125 Q 638.111 341.276 639.377 341.276 L 639.377 341.276 L 639.377 341.276 Q 643.296 341.276 645.074 340.101 L 645.074 340.101 L 645.074 340.101 Q 646.852 338.925 646.852 336.514 L 646.852 336.514 L 646.852 336.514 Q 646.852 334.886 645.617 333.922 L 645.617 333.922 L 645.617 333.922 Q 644.381 332.957 642.512 332.294 L 642.512 332.294 L 642.512 332.294 Q 640.643 331.631 638.443 330.968 L 638.443 330.968 L 638.443 330.968 Q 636.243 330.305 634.374 329.25 L 634.374 329.25 L 634.374 329.25 Q 632.505 328.195 631.269 326.507 L 631.269 326.507 L 631.269 326.507 Q 630.034 324.819 630.034 322.046 L 630.034 322.046 L 630.034 322.046 Q 630.034 317.525 633.048 315.144 L 633.048 315.144 L 633.048 315.144 Q 636.062 312.763 641.065 312.642 L 641.065 312.642 L 641.065 312.642 Q 643.175 312.702 645.375 312.974 L 645.375 312.974 L 645.375 312.974 Q 647.576 313.245 649.866 313.968 L 649.866 313.968 L 651.373 314.451 L 651.193 322.589 L 647.274 322.589 L 646.31 317.887 L 646.31 317.887 Q 645.827 317.706 644.441 317.435 L 644.441 317.435 L 644.441 317.435 Q 643.054 317.163 641.487 317.163 L 641.487 317.163 L 641.487 317.163 Q 640.402 317.163 639.438 317.344 L 639.438 317.344 L 639.438 317.344 Q 638.473 317.525 637.72 317.947 L 637.72 317.947 L 637.72 317.947 Q 636.966 318.369 636.514 319.153 L 636.514 319.153 L 636.514 319.153 Q 636.062 319.936 636.062 321.082 L 636.062 321.082 L 636.062 321.082 Q 636.062 322.83 637.298 323.824 L 637.298 323.824 L 637.298 323.824 Q 638.533 324.819 640.402 325.543 L 640.402 325.543 L 640.402 325.543 Q 642.271 326.266 644.471 326.929 L 644.471 326.929 L 644.471 326.929 Q 646.671 327.592 648.54 328.647 L 648.54 328.647 L 648.54 328.647 Q 650.409 329.702 651.645 331.33 L 651.645 331.33 L 651.645 331.33 Q 652.88 332.957 652.88 335.61 L 652.88 335.61 L 652.88 335.61 Q 652.88 338.141 651.795 340.071 L 651.795 340.071 L 651.795 340.071 Q 650.71 342 648.872 343.296 L 648.872 343.296 L 648.872 343.296 Q 647.033 344.592 644.592 345.225 L 644.592 345.225 L 644.592 345.225 Q 642.15 345.858 639.377 345.858 L 639.377 345.858 L 639.377 345.858 Q 638.352 345.858 637.237 345.767 L 637.237 345.767 L 637.237 345.767 Q 636.122 345.677 635.037 345.526 L 635.037 345.526 L 635.037 345.526 Q 633.952 345.375 633.018 345.195 L 633.018 345.195 L 633.018 345.195 Q 632.083 345.014 631.48 344.833 L 631.48 344.833 L 630.094 344.471 L 630.094 344.471 L 630.094 344.471 L 630.094 344.471 L 630.094 344.471 L 630.094 344.471 L 630.094 344.471 Z  M 665.901 299.079 L 665.901 299.079 L 665.901 299.079 Q 669.82 299.079 669.82 303.6 L 669.82 303.6 L 669.82 303.6 Q 669.82 305.469 668.494 306.493 L 668.494 306.493 L 668.494 306.493 Q 667.167 307.518 665.66 307.518 L 665.66 307.518 L 665.66 307.518 Q 664.033 307.518 663.008 306.403 L 663.008 306.403 L 663.008 306.403 Q 661.983 305.288 661.983 303.298 L 661.983 303.298 L 661.983 303.298 Q 661.983 301.309 663.098 300.194 L 663.098 300.194 L 663.098 300.194 Q 664.214 299.079 665.901 299.079 L 665.901 299.079 L 665.901 299.079 L 665.901 299.079 L 665.901 299.079 L 665.901 299.079 L 665.901 299.079 Z  M 658.065 313.546 L 669.217 313.245 L 669.217 340.372 L 673.738 341.879 L 673.738 345.195 L 658.065 345.195 L 658.065 341.879 L 663.189 340.372 L 663.189 318.068 L 658.065 316.862 L 658.065 313.546 L 658.065 313.546 L 658.065 313.546 L 658.065 313.546 L 658.065 313.546 L 658.065 313.546 L 658.065 313.546 Z  M 692.727 316.862 L 692.727 316.862 L 692.727 316.862 Q 685.795 316.862 685.795 324.096 L 685.795 324.096 L 685.795 324.096 Q 685.795 327.411 687.482 329.37 L 687.482 329.37 L 687.482 329.37 Q 689.17 331.33 692.365 331.33 L 692.365 331.33 L 692.365 331.33 Q 696.043 331.33 697.7 329.612 L 697.7 329.612 L 697.7 329.612 Q 699.358 327.894 699.358 324.096 L 699.358 324.096 L 699.358 324.096 Q 699.358 316.862 692.727 316.862 L 692.727 316.862 L 692.727 316.862 L 692.727 316.862 L 692.727 316.862 L 692.727 316.862 L 692.727 316.862 Z  M 695.138 345.195 L 695.138 345.195 L 688.507 345.195 L 688.507 345.195 Q 688.206 345.315 687.332 345.948 L 687.332 345.948 L 687.332 345.948 Q 686.458 346.581 685.975 347.124 L 685.975 347.124 L 685.975 347.124 Q 684.589 348.691 684.589 350.62 L 684.589 350.62 L 684.589 350.62 Q 684.589 353.574 686.91 354.659 L 686.91 354.659 L 686.91 354.659 Q 689.231 355.744 693.933 355.744 L 693.933 355.744 L 693.933 355.744 Q 702.975 355.744 702.975 350.017 L 702.975 350.017 L 702.975 350.017 Q 702.975 347.244 701.016 346.219 L 701.016 346.219 L 701.016 346.219 Q 699.057 345.195 695.138 345.195 L 695.138 345.195 L 695.138 345.195 L 695.138 345.195 L 695.138 345.195 L 695.138 345.195 L 695.138 345.195 Z  M 573.007 345.195 L 554.922 345.195 L 554.922 341.578 L 560.046 340.372 L 560.046 307.82 L 554.922 306.614 L 554.922 303.298 L 566.376 302.997 L 573.911 302.997 L 573.911 302.997 Q 578.372 302.997 581.898 304.353 L 581.898 304.353 L 581.898 304.353 Q 585.425 305.71 587.866 308.332 L 587.866 308.332 L 587.866 308.332 Q 590.308 310.954 591.604 314.782 L 591.604 314.782 L 591.604 314.782 Q 592.9 318.61 592.9 323.553 L 592.9 323.553 L 592.9 323.553 Q 592.9 328.496 591.483 332.475 L 591.483 332.475 L 591.483 332.475 Q 590.066 336.454 587.474 339.287 L 587.474 339.287 L 587.474 339.287 Q 584.882 342.12 581.205 343.657 L 581.205 343.657 L 581.205 343.657 Q 577.528 345.195 573.007 345.195 L 573.007 345.195 L 573.007 345.195 L 573.007 345.195 L 573.007 345.195 L 573.007 345.195 L 573.007 345.195 L 573.007 345.195 Z  M 342.403 311.323 L 345.024 318.865 C 345.206 319.387 345.801 319.819 346.353 319.83 L 354.336 319.993 C 354.888 320.004 354.979 320.284 354.539 320.618 L 348.176 325.442 C 347.736 325.775 347.509 326.475 347.669 327.003 L 349.981 334.647 C 350.141 335.175 349.903 335.348 349.45 335.033 L 342.895 330.472 C 342.442 330.156 341.706 330.156 341.253 330.472 L 334.699 335.033 C 334.246 335.348 334.008 335.175 334.167 334.647 L 336.48 327.003 C 336.64 326.475 336.412 325.775 335.972 325.442 L 329.609 320.618 C 329.169 320.284 329.26 320.004 329.812 319.993 L 337.796 319.83 C 338.348 319.819 338.943 319.387 339.124 318.865 L 341.746 311.323 C 341.927 310.801 342.221 310.801 342.403 311.323 L 342.403 311.323 Z  M 339.956 345.195 L 321.871 345.195 L 321.871 341.578 L 326.995 340.372 L 326.995 307.82 L 321.871 306.614 L 321.871 303.298 L 333.325 302.997 L 340.86 302.997 L 340.86 302.997 Q 345.321 302.997 348.848 304.353 L 348.848 304.353 L 348.848 304.353 Q 352.374 305.71 354.815 308.332 L 354.815 308.332 L 354.815 308.332 Q 357.257 310.954 358.553 314.782 L 358.553 314.782 L 358.553 314.782 Q 359.849 318.61 359.849 323.553 L 359.849 323.553 L 359.849 323.553 Q 359.849 328.496 358.432 332.475 L 358.432 332.475 L 358.432 332.475 Q 357.016 336.454 354.424 339.287 L 354.424 339.287 L 354.424 339.287 Q 351.832 342.12 348.154 343.657 L 348.154 343.657 L 348.154 343.657 Q 344.477 345.195 339.956 345.195 L 339.956 345.195 L 339.956 345.195 L 339.956 345.195 L 339.956 345.195 L 339.956 345.195 L 339.956 345.195 L 339.956 345.195 Z  M 625.151 326.808 L 624.849 330.003 L 604.052 330.124 L 604.052 330.124 Q 604.052 335.067 606.433 338.021 L 606.433 338.021 L 606.433 338.021 Q 608.814 340.975 612.793 340.975 L 612.793 340.975 L 612.793 340.975 Q 614.119 340.975 615.445 340.734 L 615.445 340.734 L 615.445 340.734 Q 616.771 340.493 617.947 340.131 L 617.947 340.131 L 617.947 340.131 Q 619.123 339.769 620.087 339.317 L 620.087 339.317 L 620.087 339.317 Q 621.052 338.865 621.715 338.443 L 621.715 338.443 L 622.92 337.659 L 625.03 340.794 L 625.03 340.794 Q 622.981 342.422 621.263 343.356 L 621.263 343.356 L 621.263 343.356 Q 619.544 344.29 617.224 345.044 L 617.224 345.044 L 617.224 345.044 Q 614.903 345.797 612.19 345.797 L 612.19 345.797 L 612.19 345.797 Q 605.077 345.797 601.4 341.487 L 601.4 341.487 L 601.4 341.487 Q 597.722 337.177 597.722 329.702 L 597.722 329.702 L 597.722 329.702 Q 597.722 325.965 598.807 322.83 L 598.807 322.83 L 598.807 322.83 Q 599.893 319.695 601.852 317.435 L 601.852 317.435 L 601.852 317.435 Q 603.811 315.174 606.524 313.908 L 606.524 313.908 L 606.524 313.908 Q 609.236 312.642 612.491 312.642 L 612.491 312.642 L 612.491 312.642 Q 625.151 312.642 625.151 326.808 L 625.151 326.808 L 625.151 326.808 L 625.151 326.808 L 625.151 326.808 L 625.151 326.808 L 625.151 326.808 L 625.151 326.808 Z  M 781.04 326.808 L 780.739 330.003 L 759.942 330.124 L 759.942 330.124 Q 759.942 335.067 762.323 338.021 L 762.323 338.021 L 762.323 338.021 Q 764.704 340.975 768.682 340.975 L 768.682 340.975 L 768.682 340.975 Q 770.009 340.975 771.335 340.734 L 771.335 340.734 L 771.335 340.734 Q 772.661 340.493 773.837 340.131 L 773.837 340.131 L 773.837 340.131 Q 775.012 339.769 775.977 339.317 L 775.977 339.317 L 775.977 339.317 Q 776.941 338.865 777.604 338.443 L 777.604 338.443 L 778.81 337.659 L 780.92 340.794 L 780.92 340.794 Q 778.87 342.422 777.152 343.356 L 777.152 343.356 L 777.152 343.356 Q 775.434 344.29 773.113 345.044 L 773.113 345.044 L 773.113 345.044 Q 770.792 345.797 768.08 345.797 L 768.08 345.797 L 768.08 345.797 Q 760.966 345.797 757.289 341.487 L 757.289 341.487 L 757.289 341.487 Q 753.612 337.177 753.612 329.702 L 753.612 329.702 L 753.612 329.702 Q 753.612 325.965 754.697 322.83 L 754.697 322.83 L 754.697 322.83 Q 755.782 319.695 757.741 317.435 L 757.741 317.435 L 757.741 317.435 Q 759.7 315.174 762.413 313.908 L 762.413 313.908 L 762.413 313.908 Q 765.126 312.642 768.381 312.642 L 768.381 312.642 L 768.381 312.642 Q 781.04 312.642 781.04 326.808 L 781.04 326.808 L 781.04 326.808 L 781.04 326.808 L 781.04 326.808 L 781.04 326.808 L 781.04 326.808 L 781.04 326.808 Z  M 692.124 335.549 L 692.124 335.549 L 692.124 335.549 Q 689.472 335.549 687.603 335.007 L 687.603 335.007 L 687.302 340.673 L 696.645 340.673 L 696.645 340.673 Q 702.553 340.673 705.627 342.904 L 705.627 342.904 L 705.627 342.904 Q 708.702 345.134 708.702 349.655 L 708.702 349.655 L 708.702 349.655 Q 708.702 354.538 704.723 357.402 L 704.723 357.402 L 704.723 357.402 Q 700.745 360.265 693.028 360.265 L 693.028 360.265 L 693.028 360.265 Q 678.561 360.265 678.561 351.524 L 678.561 351.524 L 678.561 351.524 Q 678.561 347.726 682.6 345.074 L 682.6 345.074 L 682.6 345.074 Q 683.564 344.471 684.89 343.989 L 684.89 343.989 L 684.89 343.989 Q 683.263 343.748 682.268 342.844 L 682.268 342.844 L 682.268 342.844 Q 681.273 341.939 681.273 340.794 L 681.273 340.794 L 681.273 340.794 Q 681.273 338.805 683.624 335.007 L 683.624 335.007 L 684.408 333.741 L 684.408 333.741 Q 683.866 333.56 682.931 332.656 L 682.931 332.656 L 682.931 332.656 Q 681.997 331.752 681.394 330.847 L 681.394 330.847 L 681.394 330.847 Q 679.766 328.316 679.766 324.397 L 679.766 324.397 L 679.766 324.397 Q 679.766 318.67 683.353 315.656 L 683.353 315.656 L 683.353 315.656 Q 686.94 312.642 693.028 312.642 L 693.028 312.642 L 693.028 312.642 Q 696.404 312.642 698.393 313.486 L 698.393 313.486 L 699.057 313.788 L 709.606 313.546 L 709.606 316.862 L 703.759 317.706 L 703.759 317.706 Q 705.386 319.876 705.386 323.794 L 705.386 323.794 L 705.386 323.794 Q 705.386 329.702 701.83 332.626 L 701.83 332.626 L 701.83 332.626 Q 698.273 335.549 692.124 335.549 L 692.124 335.549 L 692.124 335.549 L 692.124 335.549 L 692.124 335.549 L 692.124 335.549 L 692.124 335.549 Z  M 575.453 311.323 L 578.075 318.865 C 578.256 319.387 578.851 319.819 579.403 319.83 L 587.387 319.993 C 587.939 320.004 588.03 320.284 587.59 320.618 L 581.227 325.442 C 580.787 325.775 580.56 326.475 580.719 327.003 L 583.032 334.647 C 583.192 335.175 582.954 335.348 582.501 335.033 L 575.946 330.472 C 575.493 330.156 574.757 330.156 574.304 330.472 L 567.749 335.033 C 567.296 335.348 567.058 335.175 567.218 334.647 L 569.531 327.003 C 569.69 326.475 569.463 325.775 569.023 325.442 L 562.66 320.618 C 562.22 320.284 562.311 320.004 562.863 319.993 L 570.847 319.83 C 571.398 319.819 571.993 319.387 572.175 318.865 L 574.797 311.323 C 574.978 310.801 575.272 310.801 575.453 311.323 Z " fill-rule="evenodd" fill="rgb(255,255,255)"/></g></g></svg>